<svg xmlns="http://www.w3.org/2000/svg" width="102.882" height="133" viewBox="0 0 102.882 133">
  <g id="Group_110" data-name="Group 110" transform="translate(-1180.085 -146)">
    <g id="Group_64" data-name="Group 64" transform="translate(1180.085 163.863)">
      <g id="Icon_feather-shopping-bag" data-name="Icon feather-shopping-bag" transform="translate(19.828)">
        <path id="Path_19" data-name="Path 19" d="M14.654,3,4.5,16.538V63.922a6.769,6.769,0,0,0,6.769,6.769H58.653a6.769,6.769,0,0,0,6.769-6.769V16.538L55.269,3Z" transform="translate(-4.5 -3)" fill="none" stroke="#c4007c" stroke-linecap="round" stroke-linejoin="round" stroke-width="5"/>
        <path id="Path_20" data-name="Path 20" d="M4.5,9H65.422" transform="translate(-4.5 4.538)" fill="none" stroke="#c4007c" stroke-linecap="round" stroke-linejoin="round" stroke-width="5"/>
        <path id="Path_21" data-name="Path 21" d="M39.077,15A13.538,13.538,0,1,1,12,15" transform="translate(4.923 12.077)" fill="none" stroke="#c4007c" stroke-linecap="round" stroke-linejoin="round" stroke-width="5"/>
      </g>
      <text id="jajan" transform="translate(2 106.137)" fill="#c4007c" font-size="36" font-family="Objectivity-Bold, Objectivity" font-weight="700"><tspan x="0" y="0">jajan</tspan></text>
    </g>
    <path id="Icon_metro-trademark" data-name="Icon metro-trademark" d="M13.829,13.252v1.537a.383.383,0,0,1-.125.289.415.415,0,0,1-.3.118H9.494V25.863a.415.415,0,0,1-.118.3.383.383,0,0,1-.289.125H7.313a.415.415,0,0,1-.3-.118.4.4,0,0,1-.125-.3V15.2h-3.9a.415.415,0,0,1-.3-.118.383.383,0,0,1-.125-.289V13.252a.4.4,0,0,1,.42-.42H13.409a.426.426,0,0,1,.42.42Zm13.636-.039,1.012,12.624a.432.432,0,0,1-.105.315.415.415,0,0,1-.3.131h-1.76a.389.389,0,0,1-.276-.112A.406.406,0,0,1,25.9,25.9l-.6-7.724-2.483,5.583a.381.381,0,0,1-.381.25H20.857a.4.4,0,0,1-.381-.25l-2.47-5.609L17.416,25.9a.406.406,0,0,1-.131.269.389.389,0,0,1-.276.112H15.235a.415.415,0,0,1-.3-.131.455.455,0,0,1-.118-.315l1.025-12.624a.406.406,0,0,1,.131-.269.389.389,0,0,1,.276-.112h1.865a.4.4,0,0,1,.381.25l2.89,6.831q.131.315.263.67.039-.092.125-.322t.138-.348l2.9-6.831a.4.4,0,0,1,.381-.25h1.852a.417.417,0,0,1,.42.381Z" transform="translate(1254.489 133.168)" fill="#c4007c"/>
  </g>
</svg>
