<svg xmlns="http://www.w3.org/2000/svg" width="233.429" height="64.783" viewBox="0 0 233.429 64.783">
  <g id="Group_111" data-name="Group 111" transform="translate(-78.5 -34.582)" opacity="0.48">
    <g id="Icon_feather-shopping-bag" data-name="Icon feather-shopping-bag" transform="translate(81 37.082)">
      <path id="Path_19" data-name="Path 19" d="M13.468,3,4.5,14.957V56.805a5.978,5.978,0,0,0,5.978,5.978H52.327a5.978,5.978,0,0,0,5.978-5.978V14.957L49.337,3Z" transform="translate(-4.5 -3)" fill="none" stroke="#000" stroke-linecap="round" stroke-linejoin="round" stroke-width="5"/>
      <path id="Path_20" data-name="Path 20" d="M4.5,9h53.8" transform="translate(-4.5 2.957)" fill="none" stroke="#000" stroke-linecap="round" stroke-linejoin="round" stroke-width="5"/>
      <path id="Path_21" data-name="Path 21" d="M35.913,15A11.957,11.957,0,1,1,12,15" transform="translate(2.946 10.913)" fill="none" stroke="#000" stroke-linecap="round" stroke-linejoin="round" stroke-width="5"/>
    </g>
    <text id="jajan" transform="translate(166 82)" font-size="52" font-family="Objectivity-Medium, Objectivity" font-weight="500"><tspan x="0" y="0">jajan</tspan></text>
    <path id="Icon_metro-trademark" data-name="Icon metro-trademark" d="M12.321,13.2v1.331a.332.332,0,0,1-.108.25.36.36,0,0,1-.256.1H8.567v9.238a.36.36,0,0,1-.1.256.332.332,0,0,1-.25.108H6.678a.36.36,0,0,1-.256-.1.345.345,0,0,1-.108-.262V14.88H2.935a.36.36,0,0,1-.256-.1.332.332,0,0,1-.108-.25V13.2a.351.351,0,0,1,.364-.364h9.022a.369.369,0,0,1,.364.364Zm11.809-.034.876,10.933a.374.374,0,0,1-.091.273.36.36,0,0,1-.262.114H23.129a.337.337,0,0,1-.239-.1.352.352,0,0,1-.114-.233l-.523-6.689L20.1,22.3a.33.33,0,0,1-.33.216H18.407a.343.343,0,0,1-.33-.216l-2.139-4.858-.512,6.712a.352.352,0,0,1-.114.233.337.337,0,0,1-.239.1H13.538a.36.36,0,0,1-.262-.114.394.394,0,0,1-.1-.273l.887-10.933a.352.352,0,0,1,.114-.233.337.337,0,0,1,.239-.1H16.03a.343.343,0,0,1,.33.216l2.5,5.916q.114.273.228.58.034-.08.108-.279t.119-.3l2.514-5.916a.343.343,0,0,1,.33-.216h1.6a.361.361,0,0,1,.364.33Z" transform="translate(286.922 23.394)"/>
  </g>
</svg>
