<svg xmlns="http://www.w3.org/2000/svg" xmlns:xlink="http://www.w3.org/1999/xlink" width="623" height="959" viewBox="0 0 623 959">
  <defs>
    <linearGradient id="linear-gradient" x1="0.143" y1="0.161" x2="0.744" y2="0.811" gradientUnits="objectBoundingBox">
      <stop offset="0" stop-color="#ff77f2" stop-opacity="0.851"/>
      <stop offset="1" stop-color="#b200dc" stop-opacity="0.988"/>
    </linearGradient>
    <filter id="Rectangle_340" x="0" y="0" width="623" height="959" filterUnits="userSpaceOnUse">
      <feOffset dx="5" dy="15" input="SourceAlpha"/>
      <feGaussianBlur stdDeviation="15" result="blur"/>
      <feFlood flood-opacity="0.239"/>
      <feComposite operator="in" in2="blur"/>
      <feComposite in="SourceGraphic"/>
    </filter>
  </defs>
  <g id="Group_144" data-name="Group 144" transform="translate(40 30)">
    <g transform="matrix(1, 0, 0, 1, -40, -30)" filter="url(#Rectangle_340)">
      <rect id="Rectangle_340-2" data-name="Rectangle 340" width="533" height="869" transform="translate(40 30)" fill="url(#linear-gradient)"/>
    </g>
    <g id="Group_142" data-name="Group 142" transform="translate(291.713 70.957)" opacity="0.27">
      <circle id="Ellipse_28" data-name="Ellipse 28" cx="9.197" cy="9.197" r="9.197" transform="translate(158.921 64.285)" fill="#fff"/>
      <g id="Group_2" data-name="Group 2" transform="translate(0 0)">
        <circle id="Ellipse_11" data-name="Ellipse 11" cx="9" cy="9" r="9" transform="translate(0.287 0.043)" fill="#fff"/>
        <circle id="Ellipse_12" data-name="Ellipse 12" cx="9" cy="9" r="9" transform="translate(33.287 0.043)" fill="#fff"/>
        <circle id="Ellipse_13" data-name="Ellipse 13" cx="9" cy="9" r="9" transform="translate(64.287 0.043)" fill="#fff"/>
        <circle id="Ellipse_14" data-name="Ellipse 14" cx="9.197" cy="9.197" r="9.197" transform="translate(0.28 31.021)" fill="#fff"/>
        <circle id="Ellipse_15" data-name="Ellipse 15" cx="9.197" cy="9.197" r="9.197" transform="translate(32.468 31.021)" fill="#fff"/>
        <circle id="Ellipse_16" data-name="Ellipse 16" cx="9.197" cy="9.197" r="9.197" transform="translate(64.656 31.021)" fill="#fff"/>
        <circle id="Ellipse_17" data-name="Ellipse 17" cx="9.197" cy="9.197" r="9.197" transform="translate(0.28 64.285)" fill="#fff"/>
        <circle id="Ellipse_18" data-name="Ellipse 18" cx="9.197" cy="9.197" r="9.197" transform="translate(32.468 64.285)" fill="#fff"/>
        <circle id="Ellipse_19" data-name="Ellipse 19" cx="9.197" cy="9.197" r="9.197" transform="translate(64.656 64.285)" fill="#fff"/>
        <circle id="Ellipse_20" data-name="Ellipse 20" cx="9" cy="9" r="9" transform="translate(97.287 0.043)" fill="#fff"/>
        <circle id="Ellipse_21" data-name="Ellipse 21" cx="9" cy="9" r="9" transform="translate(126.287 0.043)" fill="#fff"/>
        <circle id="Ellipse_22" data-name="Ellipse 22" cx="9" cy="9" r="9" transform="translate(159.287 0.043)" fill="#fff"/>
        <circle id="Ellipse_23" data-name="Ellipse 23" cx="9.197" cy="9.197" r="9.197" transform="translate(96.844 31.021)" fill="#fff"/>
        <ellipse id="Ellipse_24" data-name="Ellipse 24" cx="9.203" cy="9.197" rx="9.203" ry="9.197" transform="translate(126.733 31.021)" fill="#fff"/>
        <circle id="Ellipse_25" data-name="Ellipse 25" cx="9.197" cy="9.197" r="9.197" transform="translate(158.921 31.021)" fill="#fff"/>
        <circle id="Ellipse_26" data-name="Ellipse 26" cx="9.197" cy="9.197" r="9.197" transform="translate(96.844 64.285)" fill="#fff"/>
        <ellipse id="Ellipse_27" data-name="Ellipse 27" cx="9.203" cy="9.197" rx="9.203" ry="9.197" transform="translate(126.733 64.285)" fill="#fff"/>
        <circle id="Ellipse_29" data-name="Ellipse 29" cx="9.197" cy="9.197" r="9.197" transform="translate(0.28 97.548)" fill="#fff"/>
        <circle id="Ellipse_30" data-name="Ellipse 30" cx="9.197" cy="9.197" r="9.197" transform="translate(32.468 97.548)" fill="#fff"/>
        <circle id="Ellipse_31" data-name="Ellipse 31" cx="9.197" cy="9.197" r="9.197" transform="translate(64.656 97.548)" fill="#fff"/>
        <circle id="Ellipse_32" data-name="Ellipse 32" cx="9.197" cy="9.197" r="9.197" transform="translate(0.28 128.253)" fill="#fff"/>
        <circle id="Ellipse_33" data-name="Ellipse 33" cx="9.197" cy="9.197" r="9.197" transform="translate(32.468 128.253)" fill="#fff"/>
        <circle id="Ellipse_34" data-name="Ellipse 34" cx="9.197" cy="9.197" r="9.197" transform="translate(64.656 128.253)" fill="#fff"/>
        <circle id="Ellipse_35" data-name="Ellipse 35" cx="9" cy="9" r="9" transform="translate(0.287 159.043)" fill="#fff"/>
        <circle id="Ellipse_36" data-name="Ellipse 36" cx="9" cy="9" r="9" transform="translate(33.287 159.043)" fill="#fff"/>
        <circle id="Ellipse_37" data-name="Ellipse 37" cx="9" cy="9" r="9" transform="translate(64.287 159.043)" fill="#fff"/>
        <circle id="Ellipse_38" data-name="Ellipse 38" cx="9.197" cy="9.197" r="9.197" transform="translate(96.844 97.548)" fill="#fff"/>
        <ellipse id="Ellipse_39" data-name="Ellipse 39" cx="9.203" cy="9.197" rx="9.203" ry="9.197" transform="translate(126.733 97.548)" fill="#fff"/>
        <circle id="Ellipse_40" data-name="Ellipse 40" cx="9.197" cy="9.197" r="9.197" transform="translate(158.921 97.548)" fill="#fff"/>
        <circle id="Ellipse_41" data-name="Ellipse 41" cx="9.197" cy="9.197" r="9.197" transform="translate(96.844 128.253)" fill="#fff"/>
        <ellipse id="Ellipse_42" data-name="Ellipse 42" cx="9.203" cy="9.197" rx="9.203" ry="9.197" transform="translate(126.733 128.253)" fill="#fff"/>
        <circle id="Ellipse_43" data-name="Ellipse 43" cx="9.197" cy="9.197" r="9.197" transform="translate(158.921 128.253)" fill="#fff"/>
        <circle id="Ellipse_44" data-name="Ellipse 44" cx="9" cy="9" r="9" transform="translate(97.287 159.043)" fill="#fff"/>
        <circle id="Ellipse_45" data-name="Ellipse 45" cx="9" cy="9" r="9" transform="translate(126.287 159.043)" fill="#fff"/>
        <circle id="Ellipse_46" data-name="Ellipse 46" cx="9" cy="9" r="9" transform="translate(159.287 159.043)" fill="#fff"/>
      </g>
    </g>
  </g>
</svg>
