<svg xmlns="http://www.w3.org/2000/svg" xmlns:xlink="http://www.w3.org/1999/xlink" width="624" height="955" viewBox="0 0 624 955">
  <defs>
    <linearGradient id="linear-gradient" x1="0.143" y1="0.161" x2="0.744" y2="0.811" gradientUnits="objectBoundingBox">
      <stop offset="0" stop-color="#9ed8a4" stop-opacity="0.851"/>
      <stop offset="1" stop-color="#3f7d7b" stop-opacity="0.988"/>
    </linearGradient>
    <filter id="Rectangle_341" x="0" y="0" width="624" height="955" filterUnits="userSpaceOnUse">
      <feOffset dx="5" dy="15" input="SourceAlpha"/>
      <feGaussianBlur stdDeviation="15" result="blur"/>
      <feFlood flood-opacity="0.239"/>
      <feComposite operator="in" in2="blur"/>
      <feComposite in="SourceGraphic"/>
    </filter>
  </defs>
  <g id="Group_145" data-name="Group 145" transform="translate(40.31 29.942)">
    <g transform="matrix(1, 0, 0, 1, -40.31, -29.94)" filter="url(#Rectangle_341)">
      <rect id="Rectangle_341-2" data-name="Rectangle 341" width="534" height="865" transform="translate(40 30)" fill="url(#linear-gradient)"/>
    </g>
    <g id="Group_143" data-name="Group 143" transform="translate(291.565 72.271)" opacity="0.3">
      <circle id="Ellipse_28" data-name="Ellipse 28" cx="9.197" cy="9.197" r="9.197" transform="translate(158.642 63.627)" fill="#fff"/>
      <g id="Group_2" data-name="Group 2" transform="translate(0 0)">
        <ellipse id="Ellipse_11" data-name="Ellipse 11" cx="9" cy="9.5" rx="9" ry="9.5" transform="translate(0.125 -0.213)" fill="#fff"/>
        <ellipse id="Ellipse_12" data-name="Ellipse 12" cx="9" cy="9.5" rx="9" ry="9.5" transform="translate(32.125 -0.213)" fill="#fff"/>
        <circle id="Ellipse_13" data-name="Ellipse 13" cx="9.5" cy="9.5" r="9.5" transform="translate(64.125 -0.213)" fill="#fff"/>
        <circle id="Ellipse_14" data-name="Ellipse 14" cx="9.197" cy="9.197" r="9.197" transform="translate(0 30.364)" fill="#fff"/>
        <circle id="Ellipse_15" data-name="Ellipse 15" cx="9.197" cy="9.197" r="9.197" transform="translate(32.188 30.364)" fill="#fff"/>
        <circle id="Ellipse_16" data-name="Ellipse 16" cx="9.197" cy="9.197" r="9.197" transform="translate(64.376 30.364)" fill="#fff"/>
        <circle id="Ellipse_17" data-name="Ellipse 17" cx="9.197" cy="9.197" r="9.197" transform="translate(0 63.627)" fill="#fff"/>
        <circle id="Ellipse_18" data-name="Ellipse 18" cx="9.197" cy="9.197" r="9.197" transform="translate(32.188 63.627)" fill="#fff"/>
        <circle id="Ellipse_19" data-name="Ellipse 19" cx="9.197" cy="9.197" r="9.197" transform="translate(64.376 63.627)" fill="#fff"/>
        <ellipse id="Ellipse_20" data-name="Ellipse 20" cx="9" cy="9.5" rx="9" ry="9.5" transform="translate(96.125 -0.213)" fill="#fff"/>
        <circle id="Ellipse_21" data-name="Ellipse 21" cx="9.5" cy="9.5" r="9.5" transform="translate(126.125 -0.213)" fill="#fff"/>
        <ellipse id="Ellipse_22" data-name="Ellipse 22" cx="9" cy="9.5" rx="9" ry="9.5" transform="translate(159.125 -0.213)" fill="#fff"/>
        <circle id="Ellipse_23" data-name="Ellipse 23" cx="9.197" cy="9.197" r="9.197" transform="translate(96.564 30.364)" fill="#fff"/>
        <ellipse id="Ellipse_24" data-name="Ellipse 24" cx="9.203" cy="9.197" rx="9.203" ry="9.197" transform="translate(126.453 30.364)" fill="#fff"/>
        <circle id="Ellipse_25" data-name="Ellipse 25" cx="9.197" cy="9.197" r="9.197" transform="translate(158.642 30.364)" fill="#fff"/>
        <circle id="Ellipse_26" data-name="Ellipse 26" cx="9.197" cy="9.197" r="9.197" transform="translate(96.564 63.627)" fill="#fff"/>
        <ellipse id="Ellipse_27" data-name="Ellipse 27" cx="9.203" cy="9.197" rx="9.203" ry="9.197" transform="translate(126.453 63.627)" fill="#fff"/>
        <circle id="Ellipse_29" data-name="Ellipse 29" cx="9.197" cy="9.197" r="9.197" transform="translate(0 96.891)" fill="#fff"/>
        <circle id="Ellipse_30" data-name="Ellipse 30" cx="9.197" cy="9.197" r="9.197" transform="translate(32.188 96.891)" fill="#fff"/>
        <circle id="Ellipse_31" data-name="Ellipse 31" cx="9.197" cy="9.197" r="9.197" transform="translate(64.376 96.891)" fill="#fff"/>
        <circle id="Ellipse_32" data-name="Ellipse 32" cx="9.197" cy="9.197" r="9.197" transform="translate(0 127.595)" fill="#fff"/>
        <circle id="Ellipse_33" data-name="Ellipse 33" cx="9.197" cy="9.197" r="9.197" transform="translate(32.188 127.595)" fill="#fff"/>
        <circle id="Ellipse_34" data-name="Ellipse 34" cx="9.197" cy="9.197" r="9.197" transform="translate(64.376 127.595)" fill="#fff"/>
        <circle id="Ellipse_35" data-name="Ellipse 35" cx="9" cy="9" r="9" transform="translate(0.125 157.787)" fill="#fff"/>
        <circle id="Ellipse_36" data-name="Ellipse 36" cx="9" cy="9" r="9" transform="translate(32.125 157.787)" fill="#fff"/>
        <ellipse id="Ellipse_37" data-name="Ellipse 37" cx="9.5" cy="9" rx="9.5" ry="9" transform="translate(64.125 157.787)" fill="#fff"/>
        <circle id="Ellipse_38" data-name="Ellipse 38" cx="9.197" cy="9.197" r="9.197" transform="translate(96.564 96.891)" fill="#fff"/>
        <ellipse id="Ellipse_39" data-name="Ellipse 39" cx="9.203" cy="9.197" rx="9.203" ry="9.197" transform="translate(126.453 96.891)" fill="#fff"/>
        <circle id="Ellipse_40" data-name="Ellipse 40" cx="9.197" cy="9.197" r="9.197" transform="translate(158.642 96.891)" fill="#fff"/>
        <circle id="Ellipse_41" data-name="Ellipse 41" cx="9.197" cy="9.197" r="9.197" transform="translate(96.564 127.595)" fill="#fff"/>
        <ellipse id="Ellipse_42" data-name="Ellipse 42" cx="9.203" cy="9.197" rx="9.203" ry="9.197" transform="translate(126.453 127.595)" fill="#fff"/>
        <circle id="Ellipse_43" data-name="Ellipse 43" cx="9.197" cy="9.197" r="9.197" transform="translate(158.642 127.595)" fill="#fff"/>
        <circle id="Ellipse_44" data-name="Ellipse 44" cx="9" cy="9" r="9" transform="translate(96.125 157.787)" fill="#fff"/>
        <ellipse id="Ellipse_45" data-name="Ellipse 45" cx="9.5" cy="9" rx="9.5" ry="9" transform="translate(126.125 157.787)" fill="#fff"/>
        <circle id="Ellipse_46" data-name="Ellipse 46" cx="9" cy="9" r="9" transform="translate(159.125 157.787)" fill="#fff"/>
      </g>
    </g>
  </g>
</svg>
